{
  "accessors": [
    {
      "name": "10076_pisa_tower_1_positions",
      "componentType": 5126,
      "count": 36170,
      "min": [
        -954.79541015625,
        -959.2908935546875,
        -377.718505859375
      ],
      "max": [
        954.7965698242188,
        959.2913818359375,
        5200.5537109375
      ],
      "type": "VEC3",
      "bufferView": 0,
      "byteOffset": 0
    },
    {
      "name": "10076_pisa_tower_1_normals",
      "componentType": 5126,
      "count": 36170,
      "min": [
        -1,
        -1,
        -1
      ],
      "max": [
        1,
        1,
        1
      ],
      "type": "VEC3",
      "bufferView": 0,
      "byteOffset": 434040
    },
    {
      "name": "10076_pisa_tower_1_texcoords",
      "componentType": 5126,
      "count": 36170,
      "min": [
        0,
        0.00279999990016222
      ],
      "max": [
        0.9993000030517578,
        1
      ],
      "type": "VEC2",
      "bufferView": 1,
      "byteOffset": 0
    },
    {
      "name": "10076_pisa_tower_1_0_indices",
      "componentType": 5123,
      "count": 90918,
      "min": [
        0
      ],
      "max": [
        36169
      ],
      "type": "SCALAR",
      "bufferView": 2,
      "byteOffset": 0
    }
  ],
  "asset": {
    "generator": "obj2gltf",
    "version": "2.0"
  },
  "buffers": [
    {
      "uri": "pisa_tower_data.bin",
      "byteLength": 1339276
    }
  ],
  "bufferViews": [
    {
      "name": "bufferView_0",
      "buffer": 0,
      "byteLength": 868080,
      "byteOffset": 0,
      "byteStride": 12,
      "target": 34962
    },
    {
      "name": "bufferView_1",
      "buffer": 0,
      "byteLength": 289360,
      "byteOffset": 868080,
      "byteStride": 8,
      "target": 34962
    },
    {
      "name": "bufferView_2",
      "buffer": 0,
      "byteLength": 181836,
      "byteOffset": 1157440,
      "target": 34963
    }
  ],
  "images": [
    {
      "name": "10076_pisa_tower_v1_diffuse",
      "uri": "pisa_tower_img0.jpg"
    }
  ],
  "materials": [
    {
      "name": "22___Default",
      "pbrMetallicRoughness": {
        "baseColorTexture": {
          "index": 0
        },
        "baseColorFactor": [
          1,
          1,
          1,
          1
        ],
        "metallicFactor": 0,
        "roughnessFactor": 0.99
      },
      "emissiveFactor": [
        0.5882,
        0.5882,
        0.5882
      ],
      "alphaMode": "OPAQUE",
      "doubleSided": false
    }
  ],
  "meshes": [
    {
      "name": "10076_pisa_tower_1",
      "primitives": [
        {
          "attributes": {
            "POSITION": 0,
            "NORMAL": 1,
            "TEXCOORD_0": 2
          },
          "indices": 3,
          "material": 0,
          "mode": 4
        }
      ]
    }
  ],
  "nodes": [
    {
      "name": "10076_pisa_tower",
      "mesh": 0
    }
  ],
  "samplers": [
    {
      "magFilter": 9729,
      "minFilter": 9986,
      "wrapS": 10497,
      "wrapT": 10497
    }
  ],
  "scene": 0,
  "scenes": [
    {
      "nodes": [
        0
      ]
    }
  ],
  "textures": [
    {
      "name": "10076_pisa_tower_v1_diffuse",
      "sampler": 0,
      "source": 0
    }
  ]
}